<svg xmlns="http://www.w3.org/2000/svg" viewBox="0 0 48 48" width="48" height="48">
  <title>Heat</title>
  <rect fill="#c9a24b" x="13" y="3" width="12" height="32" rx="6"/>
  <circle fill="#c9a24b" cx="19" cy="37" r="9"/>
  <rect fill="#1b1613" x="16" y="6" width="6" height="28" rx="3"/>
  <circle fill="#1b1613" cx="19" cy="37" r="6.5"/>
  <rect fill="#e0561c" x="17" y="13" width="4" height="23" rx="2"/>
  <circle fill="#e0561c" cx="19" cy="37" r="5"/>
  <circle fill="#f6c453" cx="17.5" cy="35.5" r="1.6"/>
  <path fill="none" stroke="#e9dcc0" stroke-width="2" stroke-linecap="round" d="M8 10h4M8 16h4M8 22h4M8 28h4"/>
  <path fill="none" stroke="#e0561c" stroke-width="2.5" stroke-linecap="round" d="M33 9c-3 3 3 6 0 9s3 6 0 9s3 6 0 9M41 9c-3 3 3 6 0 9s3 6 0 9s3 6 0 9"/>
</svg>
